<svg width="600.000000" height="600.000061" viewBox="0 0 600 600" fill="none" xmlns="http://www.w3.org/2000/svg" xmlns:xlink="http://www.w3.org/1999/xlink">
	<desc>
			Created with Pixso.
	</desc>
	<g filter="url(#filter_2_11_dd)">
		<rect id="矩形 1" width="600.000000" height="600.000061" fill="url(#paint_radial_2_11_0)" fill-opacity="0.9"/>
		<rect id="矩形 1" width="600.000000" height="600.000061" fill="url(#paint_radial_2_11_1)" fill-opacity="0.4"/>
	</g>
	<g opacity="0.860000" filter="url(#filter_2_10_dd)">
		<path id="path" d="M354.112 334.345L310.614 372.477C306.402 376.169 305.994 382.378 309.686 386.589C313.377 390.8 319.586 391.208 323.797 387.516L367.296 349.385L369.246 347.675L410.788 311.258C416.348 306.384 420.833 300.192 424.243 292.68C427.739 284.983 429.643 276.876 429.957 268.36C430.707 247.954 422.868 230.55 406.439 216.147C390.426 202.11 371.279 195.406 349 196.036C339.752 196.298 330.933 197.892 322.542 200.82C314.243 203.716 307.367 207.554 301.914 212.334L244.289 262.85L184.476 315.283C181.054 318.283 178.072 322.234 175.53 327.136C172.642 332.708 170.881 338.545 170.248 344.649C168.563 360.893 174.756 375.182 188.826 387.516C202.421 399.434 217.932 404.699 235.358 403.31C241.889 402.79 248.159 401.332 254.169 398.938C259.553 396.792 263.914 394.256 267.253 391.329L323.797 341.761L380.341 292.193C387.255 286.133 391.1 278.001 391.876 267.797C392.763 256.134 388.918 246.543 380.341 239.025C372.215 231.901 362.03 228.697 349.787 229.412C338.959 230.045 330.25 233.249 323.662 239.025L282.758 274.883L241.021 311.47L241.049 311.472L254.207 326.482L254.205 326.51L241.021 311.47C236.81 315.162 236.401 321.371 240.093 325.582C243.784 329.793 249.994 330.201 254.205 326.51L295.942 289.922L336.846 254.064C339.992 251.306 344.695 249.744 350.954 249.378C357.74 248.981 363.141 250.543 367.157 254.064C370.723 257.19 372.315 261.262 371.934 266.281C371.571 271.057 369.978 274.681 367.157 277.154L310.613 326.722L254.069 376.29C252.454 377.706 250.02 379.062 246.765 380.358C242.626 382.008 238.294 383.013 233.769 383.373C221.957 384.315 211.37 380.683 202.01 372.477C193.124 364.687 189.168 356.099 190.141 346.712C190.513 343.125 191.561 339.668 193.285 336.343C194.67 333.672 196.128 331.665 197.66 330.323L257.473 277.889L315.098 227.374C318.601 224.302 323.279 221.746 329.131 219.704C335.571 217.457 342.383 216.231 349.566 216.028C366.614 215.546 381.177 220.599 393.255 231.187C404.916 241.409 410.488 253.555 409.97 267.624C409.753 273.512 408.441 279.108 406.033 284.411C403.811 289.305 401.001 293.24 397.604 296.218L356.062 332.636L354.112 334.345ZM323.799 387.488L323.797 387.516L310.614 372.477L310.642 372.479L323.799 387.488Z" fill-rule="evenodd" fill="#0DB18B"/>
	</g>
	<defs>
		<filter id="filter_2_11_dd" x="0.000000" y="0.000000" width="600.000000" height="600.000061" filterUnits="userSpaceOnUse" color-interpolation-filters="sRGB">
			<feFlood flood-opacity="0" result="BackgroundImageFix"/>
			<feGaussianBlur in="BackgroundImage" stdDeviation="1.33333"/>
			<feComposite in2="SourceAlpha" operator="in" result="effect_backgroundBlur_1"/>
			<feBlend mode="normal" in="SourceGraphic" in2="effect_backgroundBlur_1" result="shape"/>
		</filter>
		<filter id="filter_2_10_dd" x="159.977509" y="189.995605" width="280.028290" height="227.532043" filterUnits="userSpaceOnUse" color-interpolation-filters="sRGB">
			<feFlood flood-opacity="0" result="BackgroundImageFix"/>
			<feColorMatrix in="SourceAlpha" type="matrix" values="0 0 0 0 0 0 0 0 0 0 0 0 0 0 0 0 0 0 127 0"/>
			<feOffset dx="0" dy="4"/>
			<feGaussianBlur stdDeviation="3.33333"/>
			<feColorMatrix type="matrix" values="0 0 0 0 0 0 0 0 0 0 0 0 0 0 0 0 0 0 0.25 0"/>
			<feBlend mode="normal" in2="BackgroundImageFix" result="effect_dropShadow_1"/>
			<feBlend mode="normal" in="SourceGraphic" in2="effect_dropShadow_1" result="shape"/>
		</filter>
		<radialGradient id="paint_radial_2_11_0" cx="0.000000" cy="0.000000" r="1.000000" gradientUnits="userSpaceOnUse" gradientTransform="translate(300 300) rotate(90) scale(300 300)">
			<stop stop-color="#D7F0E9" stop-opacity="0.901961"/>
			<stop offset="0.663740" stop-color="#32E3AF" stop-opacity="0.752941"/>
			<stop offset="1.000000" stop-color="#E8E8E8" stop-opacity="0.000000"/>
		</radialGradient>
		<radialGradient id="paint_radial_2_11_1" cx="0.000000" cy="0.000000" r="1.000000" gradientUnits="userSpaceOnUse" gradientTransform="translate(300 300) rotate(90) scale(300 300)">
			<stop stop-color="#F10000" stop-opacity="0.200000"/>
			<stop offset="0.681934" stop-color="#CA2727" stop-opacity="0.082353"/>
			<stop offset="1.000000" stop-color="#8F3A3A" stop-opacity="0.000000"/>
		</radialGradient>
	</defs>
</svg>
