<svg width="260.028259" height="207.532059" viewBox="0 0 260.028 207.532" fill="none" xmlns="http://www.w3.org/2000/svg" xmlns:xlink="http://www.w3.org/1999/xlink">
	<path id="path" d="M184.134 138.35L140.636 176.481C136.425 180.173 136.017 186.382 139.708 190.593C143.4 194.804 149.609 195.212 153.82 191.521L197.318 153.389L199.268 151.68L240.811 115.262Q249.15 107.952 254.266 96.6849Q259.509 85.138 259.979 72.3641Q261.105 41.7552 236.461 20.1517Q212.441 -0.904415 179.023 0.0405903Q165.151 0.432871 152.564 4.82487Q140.116 9.1687 131.936 16.3386L74.3116 66.8542L14.4987 119.288Q9.36579 123.787 5.55293 131.141Q1.21966 139.498 0.270187 148.653Q-2.25668 173.019 18.8483 191.521Q39.2413 209.398 65.3807 207.315Q75.1769 206.534 84.191 202.942Q92.2675 199.724 97.2757 195.334L153.82 145.766L210.364 96.1977Q220.735 87.1068 221.899 71.8017Q223.229 54.3071 210.364 43.0289Q198.174 32.3433 179.81 33.4165Q163.567 34.3658 153.685 43.029L112.78 78.8871L71.0433 115.475L71.0715 115.477L84.229 130.486L84.2272 130.514L71.0432 115.475C66.8322 119.166 66.424 125.375 70.1155 129.586C73.807 133.798 80.0161 134.206 84.2272 130.514L125.964 93.9265L166.868 58.0684Q171.588 53.9311 180.976 53.3825Q191.156 52.7876 197.18 58.0684Q202.529 62.7574 201.956 70.2851Q201.411 77.4489 197.18 81.1583L140.636 130.726L84.0918 180.294Q81.6696 182.418 76.7879 184.363Q70.5786 186.837 63.7919 187.378Q46.0731 188.79 32.0323 176.482Q18.7033 164.797 20.1635 150.716Q20.7215 145.335 23.308 140.347Q25.3851 136.341 27.6827 134.327L87.4956 81.8936L145.12 31.3782Q150.376 26.7711 159.153 23.7082Q168.814 20.3373 179.588 20.0326Q205.16 19.3095 223.277 35.1911Q240.769 50.5248 239.993 71.6287Q239.668 80.4607 236.055 88.4159Q232.722 95.7559 227.627 100.223L186.084 136.64L184.134 138.35ZM153.822 191.493L153.82 191.521L140.636 176.481L140.664 176.483L153.822 191.493Z" fill-rule="evenodd" fill="#0DB18B"/>
</svg>
