<svg width="280.028290" height="227.532043" viewBox="0 0 280.028 227.532" fill="none" xmlns="http://www.w3.org/2000/svg" xmlns:xlink="http://www.w3.org/1999/xlink">
	<desc>
			Created with Pixso.
	</desc>
	<g opacity="0.860000" filter="url(#filter_2_10_dd)">
		<path id="path" d="M194.134 144.35L150.636 182.481C146.425 186.173 146.017 192.382 149.708 196.593C153.4 200.804 159.609 201.212 163.82 197.521L207.318 159.389L209.268 157.68L250.811 121.262C256.37 116.389 260.855 110.196 264.266 102.685C267.761 94.987 269.666 86.88 269.979 78.3641C270.73 57.9582 262.891 40.554 246.461 26.1516C230.448 12.1143 211.302 5.41058 189.023 6.04059C179.775 6.30211 170.955 7.89687 162.564 10.8249C154.265 13.7207 147.389 17.5587 141.936 22.3386L84.3116 72.8542L24.4987 125.288C21.0768 128.287 18.0948 132.238 15.5529 137.141C12.6641 142.712 10.9032 148.549 10.2702 154.653C8.58561 170.897 14.7783 185.187 28.8483 197.521C42.4436 209.439 57.9545 214.703 75.3807 213.315C81.9115 212.794 88.1816 211.337 94.191 208.942C99.5753 206.797 103.937 204.261 107.276 201.334L163.82 151.766L220.364 102.198C227.278 96.1371 231.123 88.0051 231.899 77.8017C232.786 66.1386 228.941 56.5477 220.364 49.0289C212.237 41.9052 202.053 38.701 189.81 39.4165C178.981 40.0494 170.273 43.2535 163.685 49.0289L122.78 84.8871L81.0432 121.475L81.0715 121.477L94.229 136.486L94.2272 136.514L81.0432 121.475C76.8322 125.166 76.424 131.375 80.1155 135.586C83.807 139.798 90.0161 140.206 94.2272 136.514L135.964 99.9264L176.868 64.0684C180.015 61.3102 184.717 59.7483 190.976 59.3825C197.763 58.9859 203.164 60.5478 207.18 64.0684C210.746 67.1944 212.338 71.2666 211.956 76.2851C211.593 81.061 210.001 84.6854 207.18 87.1583L150.636 136.726L94.0918 186.294C92.477 187.71 90.0424 189.066 86.7879 190.363C82.6483 192.012 78.3163 193.017 73.7919 193.378C61.9794 194.319 51.3928 190.687 42.0323 182.482C33.1463 174.692 29.19 166.103 30.1635 156.716C30.5355 153.129 31.5837 149.672 33.308 146.347C34.6928 143.676 36.151 141.67 37.6827 140.327L97.4956 87.8936L155.12 37.3782C158.624 34.3068 163.302 31.7502 169.153 29.7082C175.594 27.4609 182.405 26.2357 189.588 26.0326C206.636 25.5505 221.199 30.6033 233.277 41.1911C244.939 51.4135 250.51 63.5594 249.993 77.6287C249.776 83.5167 248.464 89.1124 246.055 94.4159C243.833 99.3092 241.024 103.245 237.627 106.223L196.084 142.64L194.134 144.35ZM163.822 197.493L163.82 197.521L150.636 182.481L150.664 182.483L163.822 197.493Z" fill-rule="evenodd" fill="#0DB18B"/>
	</g>
	<defs>
		<filter id="filter_2_10_dd" x="0.000000" y="0.000000" width="280.028290" height="227.532043" filterUnits="userSpaceOnUse" color-interpolation-filters="sRGB">
			<feFlood flood-opacity="0" result="BackgroundImageFix"/>
			<feColorMatrix in="SourceAlpha" type="matrix" values="0 0 0 0 0 0 0 0 0 0 0 0 0 0 0 0 0 0 127 0"/>
			<feOffset dx="0" dy="4"/>
			<feGaussianBlur stdDeviation="3.33333"/>
			<feColorMatrix type="matrix" values="0 0 0 0 0 0 0 0 0 0 0 0 0 0 0 0 0 0 0.25 0"/>
			<feBlend mode="normal" in2="BackgroundImageFix" result="effect_dropShadow_1"/>
			<feBlend mode="normal" in="SourceGraphic" in2="effect_dropShadow_1" result="shape"/>
		</filter>
	</defs>
</svg>
